HIERARCHY
ROOT SpineBase
{
  OFFSET 0.000000 0.000000 0.000000
  CHANNELS 6 Xposition Yposition Zposition Zrotation Xrotation Yrotation
  JOINT SpineMid
  {
    OFFSET 0.000000 27.512610 0.000000
    CHANNELS 3 Zrotation Xrotation Yrotation
    JOINT SpineShoulder
    {
      OFFSET -0.010618 20.392335 -0.613916
      CHANNELS 3 Zrotation Xrotation Yrotation
      JOINT Neck
      {
        OFFSET 0.031773 6.759778 -0.527527
        CHANNELS 3 Zrotation Xrotation Yrotation
        JOINT Head
        {
          OFFSET -4.867169 12.976264 -1.446162
          CHANNELS 3 Zrotation Xrotation Yrotation
          End Site
          {
            OFFSET 0 0 0
          }
        }
      }
      JOINT ShoulderLeft
      {
        OFFSET -14.706053 -6.286884 5.950796
        CHANNELS 3 Zrotation Xrotation Yrotation
        JOINT ElbowLeft
        {
          OFFSET -0.287642 -26.884368 -1.419345
          CHANNELS 3 Zrotation Xrotation Yrotation
          JOINT WristLeft
          {
            OFFSET 3.091665 -20.322891 -9.036090
            CHANNELS 3 Zrotation Xrotation Yrotation
            JOINT HandLeft
            {
              OFFSET 0.710658 -1.372207 0.856928
              CHANNELS 3 Zrotation Xrotation Yrotation
              JOINT HandTipLeft
              {
                OFFSET 0.315216 -6.364900 -0.038618
                CHANNELS 3 Zrotation Xrotation Yrotation
                End Site
                {
                  OFFSET 0 0 0
                }
              }
              JOINT ThumbLeft
              {
                OFFSET 4.111546 1.148933 -3.069746
                CHANNELS 3 Zrotation Xrotation Yrotation
                End Site
                {
                  OFFSET 0 0 0
                }
              }
            }
          }
        }
      }
      JOINT ShoulderRight
      {
        OFFSET 13.648358 -3.111344 -9.346030
        CHANNELS 3 Zrotation Xrotation Yrotation
        JOINT ElbowRight
        {
          OFFSET 6.580360 -23.900611 -0.573754
          CHANNELS 3 Zrotation Xrotation Yrotation
          JOINT WristRight
          {
            OFFSET -1.519747 -21.753407 -3.724882
            CHANNELS 3 Zrotation Xrotation Yrotation
            JOINT HandRight
            {
              OFFSET -1.813879 -3.457607 0.255916
              CHANNELS 3 Zrotation Xrotation Yrotation
              JOINT HandTipRight
              {
                OFFSET 0.143872 -7.234685 -0.798981
                CHANNELS 3 Zrotation Xrotation Yrotation
                End Site
                {
                  OFFSET 0 0 0
                }
              }
              JOINT ThumbRight
              {
                OFFSET -3.570561 1.349822 -0.788671
                CHANNELS 3 Zrotation Xrotation Yrotation
                End Site
                {
                  OFFSET 0 0 0
                }
              }
            }
          }
        }
      }
    }
  }
  JOINT HipLeft
  {
    OFFSET -6.057422 -0.153285 -0.361033
    CHANNELS 3 Zrotation Xrotation Yrotation
    JOINT KneeLeft
    {
      OFFSET 5.585021 -32.358162 6.862270
      CHANNELS 3 Zrotation Xrotation Yrotation
      JOINT AnkleLeft
      {
        OFFSET 6.831778 -32.200814 7.865037
        CHANNELS 3 Zrotation Xrotation Yrotation
        JOINT FootLeft
        {
          OFFSET 2.928888 -7.090897 -8.665386
          CHANNELS 3 Zrotation Xrotation Yrotation
          End Site
          {
            OFFSET 0 0 0
          }
        }
      }
    }
  }
  JOINT HipRight
  {
    OFFSET 6.651913 1.498597 -6.232469
    CHANNELS 3 Zrotation Xrotation Yrotation
    JOINT KneeRight
    {
      OFFSET 7.543500 -30.785905 4.050429
      CHANNELS 3 Zrotation Xrotation Yrotation
      JOINT AnkleRight
      {
        OFFSET 5.127290 -34.222941 7.406711
        CHANNELS 3 Zrotation Xrotation Yrotation
        JOINT FootRight
        {
          OFFSET -6.475885 -6.514959 -1.056151
          CHANNELS 3 Zrotation Xrotation Yrotation
          End Site
          {
            OFFSET 0 0 0
          }
        }
      }
    }
  }
}
MOTION
Frames: 5
Frame Time: 0.033333
-29.186675 90.811899 360.077423 -0.000000 0.000000 24.795911 0.000000 0.000000 -24.795911 -0.000000 0.000000 0.000000 -0.000000 0.000000 0.000000 0.000000 0.000000 0.000000 -0.000000 0.000000 0.000000 -0.000000 0.000000 0.000000 -0.000000 0.000000 0.000000 -0.000000 0.000000 0.000000 0.000000 0.000000 0.000000 0.000000 0.000000 0.000000 -0.000000 0.000000 0.000000 -0.000000 0.000000 0.000000 -0.000000 0.000000 0.000000 -0.000000 0.000000 0.000000 0.000000 0.000000 0.000000 0.000000 0.000000 0.000000 0.000000 0.000000 -24.795911 -0.000000 0.000000 0.000000 -0.000000 0.000000 0.000000 0.000000 0.000000 0.000000 0.000000 0.000000 -24.795911 -0.000000 0.000000 0.000000 -0.000000 0.000000 0.000000 0.000000 0.000000 0.000000
-29.131746 90.758014 360.042144 -0.070777 0.092352 24.122334 0.026854 -0.113213 -24.122250 -0.000000 0.000000 0.000000 -1.439705 -0.244288 -0.256303 0.000000 0.000000 0.000000 -0.000000 0.000000 0.000000 -1.493965 -2.551794 0.245676 2.797685 23.190747 12.255228 -5.908791 -19.857724 -13.895159 0.000000 0.000000 0.000000 0.000000 0.000000 0.000000 -0.000000 0.000000 0.000000 -0.616680 1.088406 0.035342 3.907398 0.764700 -0.755686 -5.686143 -2.635330 0.845605 0.000000 0.000000 0.000000 0.000000 0.000000 0.000000 0.026854 -0.113213 -24.122250 -0.000000 0.000000 0.000000 0.548329 -1.139103 -1.146784 0.000000 0.000000 0.000000 0.026854 -0.113213 -24.122250 -0.000000 0.000000 0.000000 -0.000000 0.000000 0.000000 0.000000 0.000000 0.000000
-29.095960 90.705791 360.033020 -0.135759 0.123272 23.686997 0.074799 -0.167426 -23.686742 -0.000000 0.000000 0.000000 -2.298623 -0.417397 -0.424159 0.000000 0.000000 0.000000 -0.000000 0.000000 0.000000 -2.784156 -4.689388 0.419536 2.806044 35.616022 18.790905 -10.910976 -29.146150 -22.276510 0.000000 0.000000 0.000000 0.000000 0.000000 0.000000 0.110913 -1.132193 -0.313284 -1.130510 2.851792 0.401729 6.237946 1.466338 -1.347544 -9.600329 -5.327461 1.295245 0.000000 0.000000 0.000000 0.000000 0.000000 0.000000 0.074799 -0.167426 -23.686742 -0.000000 0.000000 0.000000 0.924953 -2.281411 -2.098230 0.000000 0.000000 0.000000 0.074799 -0.167426 -23.686742 -0.000000 0.000000 0.000000 -0.719986 -0.213463 0.325625 0.000000 0.000000 0.000000
-29.079319 90.655229 360.050051 -0.194986 0.092997 23.489524 0.141762 -0.163008 -23.489164 -0.000000 0.000000 0.000000 -2.583041 -0.525017 -0.500658 0.000000 0.000000 0.000000 -0.000000 0.000000 0.000000 -3.873007 -6.406437 0.546661 2.515589 42.180866 22.178213 -11.993664 -33.483386 -25.708552 0.000000 0.000000 0.000000 0.000000 0.000000 0.000000 0.052746 -1.295776 -0.357491 -1.223077 3.183714 0.468240 7.413138 2.343115 -1.891121 -12.000266 -8.245035 1.518763 0.000000 0.000000 0.000000 0.000000 0.000000 0.000000 0.141762 -0.163008 -23.489164 -0.000000 0.000000 0.000000 1.131600 -3.419275 -2.853760 0.000000 0.000000 0.000000 0.141762 -0.163008 -23.489164 -0.000000 0.000000 0.000000 -0.752258 -0.172498 0.290457 0.000000 0.000000 0.000000
-29.081821 90.606329 360.093237 -0.248494 0.001730 23.529616 0.227142 -0.100791 -23.529413 -0.000000 0.000000 0.000000 -2.294970 -0.569605 -0.484228 0.000000 0.000000 0.000000 -0.274458 -1.060368 0.023306 -4.480923 -6.644072 0.708208 2.411363 45.467676 23.535285 -11.459116 -35.580590 -26.481377 0.000000 0.000000 0.000000 0.000000 0.000000 0.000000 -0.077764 -1.203737 -0.330522 -0.989049 2.787803 0.434334 7.640074 3.527884 -2.447465 -12.944177 -11.436099 1.643539 0.000000 0.000000 0.000000 0.000000 0.000000 0.000000 0.227142 -0.100791 -23.529413 -0.000000 0.000000 0.000000 1.170443 -4.547275 -3.413393 0.000000 0.000000 0.000000 0.227142 -0.100791 -23.529413 -0.000000 0.000000 0.000000 -0.000000 0.000000 0.000000 0.000000 0.000000 0.000000
